<svg width="48" height="48" viewBox="0 0 48 48" fill="none" xmlns="http://www.w3.org/2000/svg">
<g clip-path="url(#clip0_3_956)">
<path d="M34.425 38.6719L9.32812 13.575C7.22813 16.5094 6 20.1094 6 24C6 33.9375 14.0625 42 24 42C27.8906 42 31.4906 40.7719 34.425 38.6719ZM38.6719 34.425C40.7719 31.4906 42 27.8906 42 24C42 14.0625 33.9375 6 24 6C20.1094 6 16.5094 7.22813 13.575 9.32812L38.6719 34.425ZM0 24C0 17.6348 2.52856 11.5303 7.02944 7.02944C11.5303 2.52856 17.6348 0 24 0C30.3652 0 36.4697 2.52856 40.9706 7.02944C45.4714 11.5303 48 17.6348 48 24C48 30.3652 45.4714 36.4697 40.9706 40.9706C36.4697 45.4714 30.3652 48 24 48C17.6348 48 11.5303 45.4714 7.02944 40.9706C2.52856 36.4697 0 30.3652 0 24Z" fill="black"/>
</g>
<defs>
<clipPath id="clip0_3_956">
<rect width="48" height="48" fill="white"/>
</clipPath>
</defs>
</svg>
