<svg width="17" height="16" viewBox="0 0 17 16" fill="none" xmlns="http://www.w3.org/2000/svg">
<path d="M4.90133 7.33331H12.5993C13.174 7.33331 13.4793 6.65332 13.0973 6.22332L9.24867 1.89331C9.18624 1.82285 9.10957 1.76644 9.02372 1.7278C8.93788 1.68917 8.84481 1.66919 8.75067 1.66919C8.65653 1.66919 8.56346 1.68917 8.47761 1.7278C8.39177 1.76644 8.31509 1.82285 8.25267 1.89331L4.40267 6.22332C4.02067 6.65332 4.326 7.33331 4.90133 7.33331ZM8.252 14.106C8.31443 14.1764 8.3911 14.2329 8.47695 14.2715C8.56279 14.3101 8.65586 14.3301 8.75 14.3301C8.84414 14.3301 8.93721 14.3101 9.02305 14.2715C9.1089 14.2329 9.18557 14.1764 9.248 14.106L13.0967 9.77598C13.4793 9.34665 13.174 8.66665 12.5987 8.66665H4.90133C4.32667 8.66665 4.02133 9.34665 4.40333 9.77665L8.252 14.106Z" fill="#9E9E9E"/>
</svg>
