<svg width="17" height="17" viewBox="0 0 17 17" fill="none" xmlns="http://www.w3.org/2000/svg">
<path d="M4.65133 7.83331H12.3493C12.924 7.83331 13.2293 7.15332 12.8473 6.72332L8.99866 2.39331C8.93624 2.32285 8.85957 2.26644 8.77372 2.2278C8.68787 2.18917 8.59481 2.16919 8.50067 2.16919C8.40653 2.16919 8.31346 2.18917 8.22761 2.2278C8.14176 2.26644 8.06509 2.32285 8.00266 2.39331L4.15266 6.72332C3.77067 7.15332 4.076 7.83331 4.65133 7.83331ZM8.002 14.606C8.06443 14.6764 8.1411 14.7329 8.22694 14.7715C8.31279 14.8101 8.40586 14.8301 8.5 14.8301C8.59414 14.8301 8.68721 14.8101 8.77305 14.7715C8.8589 14.7329 8.93557 14.6764 8.998 14.606L12.8467 10.276C13.2293 9.84665 12.924 9.16665 12.3487 9.16665H4.65133C4.07667 9.16665 3.77133 9.84665 4.15333 10.2766L8.002 14.606Z" fill="#9E9E9E"/>
</svg>
