<svg width="16" height="16" viewBox="0 0 16 16" fill="none" xmlns="http://www.w3.org/2000/svg">
<g clip-path="url(#clip0_1_6376)">
<path d="M4.60998 0C5.23526 0 5.74044 0.446875 5.74044 1V2H10.2623V1C10.2623 0.446875 10.7675 0 11.3927 0C12.018 0 12.5232 0.446875 12.5232 1V2H14.2189C15.1551 2 15.9146 2.67188 15.9146 3.5V5H0.0881348V3.5C0.0881348 2.67188 0.847663 2 1.78383 2H3.47952V1C3.47952 0.446875 3.98469 0 4.60998 0ZM0.0881348 6H15.9146V14.5C15.9146 15.3281 15.1551 16 14.2189 16H1.78383C0.847663 16 0.0881348 15.3281 0.0881348 14.5V6ZM2.34906 8.5V9.5C2.34906 9.775 2.60341 10 2.91429 10H4.04475C4.35562 10 4.60998 9.775 4.60998 9.5V8.5C4.60998 8.225 4.35562 8 4.04475 8H2.91429C2.60341 8 2.34906 8.225 2.34906 8.5ZM6.8709 8.5V9.5C6.8709 9.775 7.12525 10 7.43613 10H8.56659C8.87747 10 9.13182 9.775 9.13182 9.5V8.5C9.13182 8.225 8.87747 8 8.56659 8H7.43613C7.12525 8 6.8709 8.225 6.8709 8.5ZM11.958 8C11.6471 8 11.3927 8.225 11.3927 8.5V9.5C11.3927 9.775 11.6471 10 11.958 10H13.0884C13.3993 10 13.6537 9.775 13.6537 9.5V8.5C13.6537 8.225 13.3993 8 13.0884 8H11.958ZM2.34906 12.5V13.5C2.34906 13.775 2.60341 14 2.91429 14H4.04475C4.35562 14 4.60998 13.775 4.60998 13.5V12.5C4.60998 12.225 4.35562 12 4.04475 12H2.91429C2.60341 12 2.34906 12.225 2.34906 12.5ZM7.43613 12C7.12525 12 6.8709 12.225 6.8709 12.5V13.5C6.8709 13.775 7.12525 14 7.43613 14H8.56659C8.87747 14 9.13182 13.775 9.13182 13.5V12.5C9.13182 12.225 8.87747 12 8.56659 12H7.43613ZM11.3927 12.5V13.5C11.3927 13.775 11.6471 14 11.958 14H13.0884C13.3993 14 13.6537 13.775 13.6537 13.5V12.5C13.6537 12.225 13.3993 12 13.0884 12H11.958C11.6471 12 11.3927 12.225 11.3927 12.5Z" fill="black"/>
</g>
<defs>
<clipPath id="clip0_1_6376">
<rect width="15.8264" height="16" fill="white" transform="translate(0.0881348)"/>
</clipPath>
</defs>
</svg>
