<svg width="17" height="16" viewBox="0 0 17 16" fill="none" xmlns="http://www.w3.org/2000/svg">
<g clip-path="url(#clip0_1_6378)">
<path d="M4.77526 0C5.40055 0 5.90572 0.446875 5.90572 1V2H10.4276V1C10.4276 0.446875 10.9327 0 11.558 0C12.1833 0 12.6885 0.446875 12.6885 1V2H14.3842C15.3203 2 16.0799 2.67188 16.0799 3.5V5H0.253418V3.5C0.253418 2.67188 1.01295 2 1.94911 2H3.6448V1C3.6448 0.446875 4.14997 0 4.77526 0ZM0.253418 6H16.0799V14.5C16.0799 15.3281 15.3203 16 14.3842 16H1.94911C1.01295 16 0.253418 15.3281 0.253418 14.5V6ZM2.51434 8.5V9.5C2.51434 9.775 2.76869 10 3.07957 10H4.21003C4.52091 10 4.77526 9.775 4.77526 9.5V8.5C4.77526 8.225 4.52091 8 4.21003 8H3.07957C2.76869 8 2.51434 8.225 2.51434 8.5ZM7.03618 8.5V9.5C7.03618 9.775 7.29053 10 7.60141 10H8.73187C9.04275 10 9.2971 9.775 9.2971 9.5V8.5C9.2971 8.225 9.04275 8 8.73187 8H7.60141C7.29053 8 7.03618 8.225 7.03618 8.5ZM12.1233 8C11.8124 8 11.558 8.225 11.558 8.5V9.5C11.558 9.775 11.8124 10 12.1233 10H13.2537C13.5646 10 13.8189 9.775 13.8189 9.5V8.5C13.8189 8.225 13.5646 8 13.2537 8H12.1233ZM2.51434 12.5V13.5C2.51434 13.775 2.76869 14 3.07957 14H4.21003C4.52091 14 4.77526 13.775 4.77526 13.5V12.5C4.77526 12.225 4.52091 12 4.21003 12H3.07957C2.76869 12 2.51434 12.225 2.51434 12.5ZM7.60141 12C7.29053 12 7.03618 12.225 7.03618 12.5V13.5C7.03618 13.775 7.29053 14 7.60141 14H8.73187C9.04275 14 9.2971 13.775 9.2971 13.5V12.5C9.2971 12.225 9.04275 12 8.73187 12H7.60141ZM11.558 12.5V13.5C11.558 13.775 11.8124 14 12.1233 14H13.2537C13.5646 14 13.8189 13.775 13.8189 13.5V12.5C13.8189 12.225 13.5646 12 13.2537 12H12.1233C11.8124 12 11.558 12.225 11.558 12.5Z" fill="black"/>
</g>
<defs>
<clipPath id="clip0_1_6378">
<rect width="15.8264" height="16" fill="white" transform="translate(0.253418)"/>
</clipPath>
</defs>
</svg>
