<svg width="24" height="24" viewBox="0 0 24 24" fill="none" xmlns="http://www.w3.org/2000/svg">
<mask id="mask0_36_66" style="mask-type:alpha" maskUnits="userSpaceOnUse" x="0" y="0" width="24" height="24">
<rect width="24" height="24" fill="#D9D9D9"/>
</mask>
<g mask="url(#mask0_36_66)">
<path d="M12 14.675C11.8834 14.675 11.771 14.654 11.663 14.612C11.5544 14.5707 11.4584 14.5084 11.375 14.425L6.87502 9.92502C6.72502 9.77503 6.65002 9.60002 6.65002 9.40002C6.65002 9.20002 6.72502 9.02502 6.87502 8.87502C7.02502 8.72502 7.20002 8.65002 7.40002 8.65002C7.60002 8.65002 7.77502 8.72502 7.92502 8.87502L12 12.95L16.075 8.87502C16.225 8.72502 16.4 8.65002 16.6 8.65002C16.8 8.65002 16.975 8.72502 17.125 8.87502C17.275 9.02502 17.35 9.20002 17.35 9.40002C17.35 9.60002 17.275 9.77503 17.125 9.92502L12.625 14.425C12.5417 14.5084 12.446 14.5707 12.338 14.612C12.2294 14.654 12.1167 14.675 12 14.675Z" fill="#4A4B4F"/>
</g>
</svg>
