<svg width="48" height="48" viewBox="0 0 48 48" fill="none" xmlns="http://www.w3.org/2000/svg">
<path d="M17 18.0714C17 17.4788 17.4469 17 18 17H19C19.5531 17 20 17.4788 20 18.0714V23.4286V25.5714V30.9286C20 31.5212 19.5531 32 19 32H18C17.4469 32 17 31.5212 17 30.9286V28.7857H16C15.4469 28.7857 15 28.3069 15 27.7143V25.5714C14.4469 25.5714 14 25.0926 14 24.5C14 23.9074 14.4469 23.4286 15 23.4286V21.2857C15 20.6931 15.4469 20.2143 16 20.2143H17V18.0714ZM31 18.0714V20.2143H32C32.5531 20.2143 33 20.6931 33 21.2857V23.4286C33.5531 23.4286 34 23.9074 34 24.5C34 25.0926 33.5531 25.5714 33 25.5714V27.7143C33 28.3069 32.5531 28.7857 32 28.7857H31V30.9286C31 31.5212 30.5531 32 30 32H29C28.4469 32 28 31.5212 28 30.9286V25.5714V23.4286V18.0714C28 17.4788 28.4469 17 29 17H30C30.5531 17 31 17.4788 31 18.0714ZM27 23.4286V25.5714H21V23.4286H27Z" fill="black"/>
</svg>
