<svg width="25" height="24" viewBox="0 0 25 24" fill="none" xmlns="http://www.w3.org/2000/svg">
<path d="M11.875 4H4.875C4.34457 4 3.83586 4.21071 3.46079 4.58579C3.08571 4.96086 2.875 5.46957 2.875 6V20C2.875 20.5304 3.08571 21.0391 3.46079 21.4142C3.83586 21.7893 4.34457 22 4.875 22H18.875C19.4054 22 19.9141 21.7893 20.2892 21.4142C20.6643 21.0391 20.875 20.5304 20.875 20V13" stroke="#624DE3" stroke-width="2" stroke-linecap="round" stroke-linejoin="round"/>
<path d="M19.375 2.49998C19.7728 2.10216 20.3124 1.87866 20.875 1.87866C21.4376 1.87866 21.9772 2.10216 22.375 2.49998C22.7728 2.89781 22.9963 3.43737 22.9963 3.99998C22.9963 4.56259 22.7728 5.10216 22.375 5.49998L12.875 15L8.875 16L9.875 12L19.375 2.49998Z" stroke="#624DE3" stroke-width="2" stroke-linecap="round" stroke-linejoin="round"/>
</svg>
