<svg width="19" height="18" viewBox="0 0 19 18" fill="none" xmlns="http://www.w3.org/2000/svg">
<g clip-path="url(#clip0_33_951)">
<path d="M8.70825 3.33325H3.16659C2.74666 3.33325 2.34393 3.48251 2.047 3.74818C1.75007 4.01386 1.58325 4.3742 1.58325 4.74992V14.6666C1.58325 15.0423 1.75007 15.4026 2.047 15.6683C2.34393 15.934 2.74666 16.0833 3.16659 16.0833H14.2499C14.6698 16.0833 15.0726 15.934 15.3695 15.6683C15.6664 15.4026 15.8333 15.0423 15.8333 14.6666V9.70825" stroke="white" stroke-width="2" stroke-linecap="round" stroke-linejoin="round"/>
<path d="M14.6458 2.27091C14.9607 1.98912 15.3879 1.83081 15.8333 1.83081C16.2787 1.83081 16.7058 1.98912 17.0208 2.27091C17.3357 2.55271 17.5126 2.9349 17.5126 3.33341C17.5126 3.73193 17.3357 4.11412 17.0208 4.39591L9.49992 11.1251L6.33325 11.8334L7.12492 9.00008L14.6458 2.27091Z" stroke="white" stroke-width="2" stroke-linecap="round" stroke-linejoin="round"/>
</g>
<defs>
<clipPath id="clip0_33_951">
<rect width="19" height="17" fill="white" transform="translate(0 0.5)"/>
</clipPath>
</defs>
</svg>
