<svg width="32" height="32" viewBox="0 0 32 32" fill="none" xmlns="http://www.w3.org/2000/svg">
<path d="M13.6704 7.8457L14.0416 13.3656L14.2258 16.14C14.2278 16.4254 14.2725 16.7088 14.3588 16.9812C14.5813 17.51 15.1168 17.846 15.6993 17.8226L24.5756 17.2419C24.96 17.2356 25.3312 17.3794 25.6074 17.6416C25.8377 17.8602 25.9864 18.146 26.0333 18.4535L26.049 18.6402C25.6817 23.7264 21.9461 27.9688 16.8704 29.0639C11.7946 30.159 6.58965 27.8456 4.08145 23.3798C3.35836 22.0823 2.90671 20.6563 2.75301 19.1852C2.68881 18.7498 2.66055 18.3099 2.66848 17.8699C2.66055 12.4169 6.5438 7.70253 11.9796 6.56601C12.6339 6.46413 13.2752 6.81048 13.5376 7.40729C13.6054 7.5455 13.6502 7.69353 13.6704 7.8457Z" fill="black"/>
<path opacity="0.4" d="M29.3335 13.0829L29.3242 13.1263L29.2973 13.1895L29.301 13.363C29.2871 13.5928 29.1983 13.8138 29.0455 13.9925C28.8862 14.1785 28.6686 14.3052 28.429 14.3544L28.2829 14.3744L18.0418 15.038C17.7011 15.0716 17.3619 14.9617 17.1087 14.7358C16.8975 14.5474 16.7626 14.2933 16.7245 14.0194L16.0371 3.79325C16.0251 3.75868 16.0251 3.7212 16.0371 3.68661C16.0465 3.40473 16.1706 3.13829 16.3817 2.94681C16.5926 2.75533 16.8731 2.65477 17.1602 2.6676C23.2401 2.82228 28.3499 7.19422 29.3335 13.0829Z" fill="black"/>
</svg>
