<svg width="40" height="35" viewBox="0 0 40 35" fill="none" xmlns="http://www.w3.org/2000/svg">
<ellipse cx="20" cy="17.5" rx="20" ry="17.5" fill="white"/>
<path d="M13.15 13.25C13.15 12.1228 13.5925 11.0418 14.3802 10.2448C15.1678 9.44777 16.2361 9 17.35 9C18.4639 9 19.5322 9.44777 20.3198 10.2448C21.1075 11.0418 21.55 12.1228 21.55 13.25C21.55 14.3772 21.1075 15.4582 20.3198 16.2552C19.5322 17.0522 18.4639 17.5 17.35 17.5C16.2361 17.5 15.1678 17.0522 14.3802 16.2552C13.5925 15.4582 13.15 14.3772 13.15 13.25ZM10 25.0139C10 21.7434 12.6184 19.0938 15.8505 19.0938H18.8495C22.0816 19.0938 24.7 21.7434 24.7 25.0139C24.7 25.5584 24.2636 26 23.7255 26H10.9745C10.4364 26 10 25.5584 10 25.0139ZM29.9927 26H25.4678C25.645 25.6879 25.75 25.326 25.75 24.9375V24.6719C25.75 22.6564 24.8608 20.8469 23.4597 19.6316C23.5384 19.6283 23.6139 19.625 23.6927 19.625H25.7073C28.6309 19.625 31 22.0223 31 24.9807C31 25.5451 30.5472 26 29.9927 26ZM24.175 17.5C23.1578 17.5 22.2391 17.0816 21.573 16.4076C22.2194 15.5244 22.6 14.432 22.6 13.25C22.6 12.3602 22.3834 11.5201 21.9995 10.783C22.6098 10.3314 23.3612 10.0625 24.175 10.0625C26.2061 10.0625 27.85 11.726 27.85 13.7812C27.85 15.8365 26.2061 17.5 24.175 17.5Z" fill="black"/>
</svg>
