<svg width="29" height="24" viewBox="0 0 29 24" fill="none" xmlns="http://www.w3.org/2000/svg">
<g clip-path="url(#clip0_1_6073)">
<path d="M3.88104 3C2.18145 3 0.799622 4.34531 0.799622 6V18C0.799622 19.6547 2.18145 21 3.88104 21H25.451C27.1506 21 28.5324 19.6547 28.5324 18V6C28.5324 4.34531 27.1506 3 25.451 3H3.88104ZM6.96246 18H3.88104V15C5.58064 15 6.96246 16.3453 6.96246 18ZM3.88104 9V6H6.96246C6.96246 7.65469 5.58064 9 3.88104 9ZM22.3696 18C22.3696 16.3453 23.7514 15 25.451 15V18H22.3696ZM25.451 9C23.7514 9 22.3696 7.65469 22.3696 6H25.451V9ZM14.666 7.5C15.8919 7.5 17.0675 7.97411 17.9344 8.81802C18.8012 9.66193 19.2881 10.8065 19.2881 12C19.2881 13.1935 18.8012 14.3381 17.9344 15.182C17.0675 16.0259 15.8919 16.5 14.666 16.5C13.4401 16.5 12.2645 16.0259 11.3977 15.182C10.5309 14.3381 10.0439 13.1935 10.0439 12C10.0439 10.8065 10.5309 9.66193 11.3977 8.81802C12.2645 7.97411 13.4401 7.5 14.666 7.5Z" fill="black"/>
</g>
<defs>
<clipPath id="clip0_1_6073">
<rect width="27.7328" height="24" fill="white" transform="translate(0.799622)"/>
</clipPath>
</defs>
</svg>
