<svg width="28" height="24" viewBox="0 0 28 24" fill="none" xmlns="http://www.w3.org/2000/svg">
<g clip-path="url(#clip0_38_270)">
<path d="M1.51593 1.56519C2.35163 1.373 3.25542 1.61675 3.73826 2.16988L13.9771 13.7949L24.216 2.16519C24.6988 1.61675 25.6026 1.36832 26.4383 1.5605C27.274 1.75269 27.8435 2.33863 27.8435 2.99957V20.9996C27.8435 21.8293 26.9583 22.4996 25.8626 22.4996C24.7669 22.4996 23.8817 21.8293 23.8817 20.9996V7.95425L15.6237 17.3339C15.2585 17.7511 14.6395 17.9996 13.9771 17.9996C13.3147 17.9996 12.6957 17.7511 12.3305 17.3339L4.07254 7.95425V20.9996C4.07254 21.8293 3.18732 22.4996 2.09163 22.4996C0.995938 22.4996 0.110718 21.8293 0.110718 20.9996V2.99957C0.110718 2.33863 0.68023 1.75738 1.51593 1.56519Z" fill="white"/>
</g>
<defs>
<clipPath id="clip0_38_270">
<rect width="27.7328" height="24" fill="white" transform="translate(0.110718)"/>
</clipPath>
</defs>
</svg>
