<svg width="28" height="24" viewBox="0 0 28 24" fill="none" xmlns="http://www.w3.org/2000/svg">
<g clip-path="url(#clip0_1_6083)">
<path d="M1.51593 1.56568C2.35163 1.37349 3.25542 1.61724 3.73826 2.17037L13.9771 13.7954L24.216 2.16568C24.6988 1.61724 25.6026 1.3688 26.4383 1.56099C27.274 1.75318 27.8435 2.33912 27.8435 3.00005V21.0001C27.8435 21.8297 26.9583 22.5001 25.8626 22.5001C24.7669 22.5001 23.8817 21.8297 23.8817 21.0001V7.95474L15.6237 17.3344C15.2585 17.7516 14.6395 18.0001 13.9771 18.0001C13.3147 18.0001 12.6957 17.7516 12.3305 17.3344L4.07254 7.95474V21.0001C4.07254 21.8297 3.18732 22.5001 2.09163 22.5001C0.995938 22.5001 0.110718 21.8297 0.110718 21.0001V3.00005C0.110718 2.33912 0.68023 1.75787 1.51593 1.56568Z" fill="black"/>
</g>
<defs>
<clipPath id="clip0_1_6083">
<rect width="27.7328" height="24" fill="white" transform="translate(0.110718)"/>
</clipPath>
</defs>
</svg>
