<?xml version="1.0" standalone="no"?>
<!DOCTYPE svg PUBLIC "-//W3C//DTD SVG 20010904//EN"
 "http://www.w3.org/TR/2001/REC-SVG-20010904/DTD/svg10.dtd">
<svg version="1.0" xmlns="http://www.w3.org/2000/svg"
 width="341.000000pt" height="180.000000pt" viewBox="0 0 341.000000 180.000000"
 preserveAspectRatio="xMidYMid meet">

<g transform="translate(0.000000,180.000000) scale(0.100000,-0.100000)"
fill="#000000" stroke="none">
<path d="M796 1791 c-3 -4 -32 -11 -63 -15 -32 -4 -97 -22 -144 -40 -275 -104
-491 -347 -554 -622 -8 -38 -20 -88 -25 -112 -13 -54 -13 -154 -1 -201 5 -20
15 -63 21 -96 27 -136 115 -302 220 -418 111 -120 303 -230 450 -257 36 -7 75
-16 88 -21 35 -14 1782 -12 1856 2 229 43 421 150 556 310 94 113 137 198 194
386 18 57 23 347 7 357 -4 3 -11 24 -15 47 -10 64 -70 202 -120 278 -64 95
-124 160 -206 221 -121 89 -212 128 -423 179 -57 13 -1833 16 -1841 2z m1919
-155 c129 -38 289 -137 368 -225 49 -56 117 -168 143 -238 71 -187 70 -366 -3
-555 -92 -235 -309 -416 -560 -464 -112 -21 -1809 -21 -1911 1 -198 41 -383
167 -486 329 -74 116 -125 282 -126 409 -1 223 117 469 290 602 99 76 245 139
370 159 14 2 437 3 940 2 848 -2 919 -3 975 -20z"/>
<path d="M2090 1272 c0 -5 77 -151 189 -357 l81 -150 0 -116 0 -116 80 0 80 0
0 118 0 117 71 134 c160 297 199 372 196 372 -1 1 -38 0 -83 -2 l-81 -3 -48
-87 c-27 -48 -66 -120 -88 -159 -22 -40 -43 -73 -47 -73 -3 0 -47 71 -97 158
l-90 157 -82 5 c-44 3 -81 3 -81 2z"/>
<path d="M800 900 l0 -370 83 3 82 2 1 105 2 105 128 6 c138 6 175 16 232 64
58 49 77 98 77 200 0 80 -3 95 -28 137 -60 102 -110 118 -373 118 l-204 0 0
-370z m407 214 c15 -11 34 -39 42 -61 12 -34 12 -45 0 -83 -21 -67 -59 -85
-182 -85 l-98 0 -2 129 -2 128 107 -4 c89 -3 112 -7 135 -24z"/>
<path d="M1665 1238 c-32 -70 -305 -699 -305 -703 0 -1 37 -2 81 -1 91 1 84
-4 123 89 l25 57 173 0 173 0 25 -66 c13 -36 29 -69 36 -74 15 -13 164 -8 164
5 0 5 -69 170 -153 365 l-152 355 -87 3 -88 3 -15 -33z m155 -274 c30 -75 57
-140 58 -145 2 -5 -51 -9 -118 -9 -94 0 -121 3 -117 13 3 6 30 71 59 144 29
73 55 132 58 133 3 0 30 -61 60 -136z"/>
</g>
</svg>
