<svg width="41" height="46" viewBox="0 0 41 46" fill="none" xmlns="http://www.w3.org/2000/svg">
<path d="M23.0625 2.875C23.0625 1.28477 21.9174 0 20.5 0C19.0826 0 17.9375 1.28477 17.9375 2.875V23C17.9375 24.5902 19.0826 25.875 20.5 25.875C21.9174 25.875 23.0625 24.5902 23.0625 23V2.875ZM11.4912 10.8352C12.5803 9.81992 12.7244 8.00508 11.8195 6.7832C10.9146 5.56133 9.29707 5.39961 8.20801 6.41484C3.97988 10.368 1.28125 16.3336 1.28125 23C1.28125 34.9043 9.88965 44.5625 20.5 44.5625C31.1104 44.5625 39.7188 34.9043 39.7188 23C39.7188 16.3336 37.0121 10.368 32.784 6.41484C31.6949 5.39961 30.0773 5.57031 29.1725 6.7832C28.2676 7.99609 28.4197 9.81992 29.5008 10.8352C32.6158 13.7371 34.5857 18.1125 34.5857 23C34.5857 31.7328 28.2756 38.8125 20.492 38.8125C12.7084 38.8125 6.39824 31.7328 6.39824 23C6.39824 18.1125 8.37617 13.7371 11.4832 10.8352H11.4912Z" fill="black"/>
</svg>
