<svg width="25" height="24" viewBox="0 0 25 24" fill="none" xmlns="http://www.w3.org/2000/svg">
<path d="M3.875 6H5.875H21.875" stroke="#A30D11" stroke-width="2" stroke-linecap="round" stroke-linejoin="round"/>
<path d="M8.875 6V4C8.875 3.46957 9.08571 2.96086 9.46079 2.58579C9.83586 2.21071 10.3446 2 10.875 2H14.875C15.4054 2 15.9141 2.21071 16.2892 2.58579C16.6643 2.96086 16.875 3.46957 16.875 4V6M19.875 6V20C19.875 20.5304 19.6643 21.0391 19.2892 21.4142C18.9141 21.7893 18.4054 22 17.875 22H7.875C7.34457 22 6.83586 21.7893 6.46079 21.4142C6.08571 21.0391 5.875 20.5304 5.875 20V6H19.875Z" stroke="#A30D11" stroke-width="2" stroke-linecap="round" stroke-linejoin="round"/>
<path d="M10.875 11V17" stroke="#A30D11" stroke-width="2" stroke-linecap="round" stroke-linejoin="round"/>
<path d="M14.875 11V17" stroke="#A30D11" stroke-width="2" stroke-linecap="round" stroke-linejoin="round"/>
</svg>
