<svg width="48" height="48" viewBox="0 0 48 48" fill="none" xmlns="http://www.w3.org/2000/svg">
<g clip-path="url(#clip0_3_920)">
<path d="M7.2 12C7.2 8.8174 8.21143 5.76516 10.0118 3.51472C11.8121 1.26428 14.2539 0 16.8 0C19.3461 0 21.7879 1.26428 23.5882 3.51472C25.3886 5.76516 26.4 8.8174 26.4 12C26.4 15.1826 25.3886 18.2348 23.5882 20.4853C21.7879 22.7357 19.3461 24 16.8 24C14.2539 24 11.8121 22.7357 10.0118 20.4853C8.21143 18.2348 7.2 15.1826 7.2 12ZM0 45.2156C0 35.9812 5.985 28.5 13.3725 28.5H20.2275C27.615 28.5 33.6 35.9812 33.6 45.2156C33.6 46.7531 32.6025 48 31.3725 48H2.2275C0.9975 48 0 46.7531 0 45.2156ZM37.8 29.25V23.25H33C32.0025 23.25 31.2 22.2469 31.2 21C31.2 19.7531 32.0025 18.75 33 18.75H37.8V12.75C37.8 11.5031 38.6025 10.5 39.6 10.5C40.5975 10.5 41.4 11.5031 41.4 12.75V18.75H46.2C47.1975 18.75 48 19.7531 48 21C48 22.2469 47.1975 23.25 46.2 23.25H41.4V29.25C41.4 30.4969 40.5975 31.5 39.6 31.5C38.6025 31.5 37.8 30.4969 37.8 29.25Z" fill="black"/>
</g>
<defs>
<clipPath id="clip0_3_920">
<rect width="48" height="48" fill="white"/>
</clipPath>
</defs>
</svg>
