<svg width="48" height="48" viewBox="0 0 48 48" fill="none" xmlns="http://www.w3.org/2000/svg">
<g clip-path="url(#clip0_3_922)">
<path d="M7.2 12C7.2 8.8174 8.21143 5.76516 10.0118 3.51472C11.8121 1.26428 14.2539 0 16.8 0C19.3461 0 21.7879 1.26428 23.5882 3.51472C25.3886 5.76516 26.4 8.8174 26.4 12C26.4 15.1826 25.3886 18.2348 23.5882 20.4853C21.7879 22.7357 19.3461 24 16.8 24C14.2539 24 11.8121 22.7357 10.0118 20.4853C8.21143 18.2348 7.2 15.1826 7.2 12ZM0 45.2156C0 35.9812 5.985 28.5 13.3725 28.5H20.2275C27.615 28.5 33.6 35.9812 33.6 45.2156C33.6 46.7531 32.6025 48 31.3725 48H2.2275C0.9975 48 0 46.7531 0 45.2156ZM45.6975 48H35.355C35.76 47.1188 36 46.0969 36 45V44.25C36 38.5594 33.9675 33.45 30.765 30.0188C30.945 30.0094 31.1175 30 31.2975 30H35.9025C42.585 30 48 36.7687 48 45.1219C48 46.7156 46.965 48 45.6975 48ZM32.4 24C30.075 24 27.975 22.8188 26.4525 20.9156C27.93 18.4219 28.8 15.3375 28.8 12C28.8 9.4875 28.305 7.11563 27.4275 5.03438C28.8225 3.75938 30.54 3 32.4 3C37.0425 3 40.8 7.69687 40.8 13.5C40.8 19.3031 37.0425 24 32.4 24Z" fill="black"/>
</g>
<defs>
<clipPath id="clip0_3_922">
<rect width="48" height="48" fill="white"/>
</clipPath>
</defs>
</svg>
