<svg width="29" height="24" viewBox="0 0 29 24" fill="none" xmlns="http://www.w3.org/2000/svg">
<path d="M14.355 12.0002C16.4565 12.0002 18.4719 11.3681 19.9578 10.2429C21.4438 9.11767 22.2786 7.59154 22.2786 6.00024C22.2786 4.40895 21.4438 2.88282 19.9578 1.7576C18.4719 0.632385 16.4565 0.000244141 14.355 0.000244141C12.2535 0.000244141 10.2381 0.632385 8.75211 1.7576C7.26614 2.88282 6.43133 4.40895 6.43132 6.00024C6.43133 7.59154 7.26614 9.11767 8.75211 10.2429C10.2381 11.3681 12.2535 12.0002 14.355 12.0002ZM11.526 14.2502C5.42849 14.2502 0.488586 17.9909 0.488586 22.6081C0.488586 23.3768 1.3119 24.0002 2.32712 24.0002H26.3828C27.3981 24.0002 28.2214 23.3768 28.2214 22.6081C28.2214 17.9909 23.2815 14.2502 17.184 14.2502H11.526Z" fill="black"/>
</svg>
