<svg width="31" height="41" viewBox="0 0 31 41" fill="none" xmlns="http://www.w3.org/2000/svg">
<path d="M15.276 3.84874C15.276 2.84625 15.7417 1.88481 16.5707 1.17594C17.3996 0.467072 18.524 0.0688324 19.6963 0.0688324C20.8687 0.0688324 21.993 0.467072 22.822 1.17594C23.651 1.88481 24.1167 2.84625 24.1167 3.84874C24.1167 4.85124 23.651 5.81267 22.822 6.52154C21.993 7.23041 20.8687 7.62865 19.6963 7.62865C18.524 7.62865 17.3996 7.23041 16.5707 6.52154C15.7417 5.81267 15.276 4.85124 15.276 3.84874ZM12.1909 15.7633C12.0988 15.7948 12.0159 15.8263 11.9238 15.8578L11.1871 16.1335C9.6768 16.7083 8.51644 17.8029 7.99152 19.1416L7.75209 19.7559C7.23637 21.0788 5.56952 21.7876 4.02238 21.3466C2.47525 20.9056 1.64643 19.4802 2.16214 18.1573L2.40158 17.543C3.45142 14.8577 5.77212 12.6685 8.79272 11.5188L9.52945 11.2432C11.445 10.5187 13.517 10.1407 15.6167 10.1407C19.724 10.1407 23.426 12.2512 25.0008 15.4877L26.419 18.3935L28.3898 19.2361C29.8448 19.8582 30.4342 21.3702 29.7067 22.6144C28.9792 23.8586 27.211 24.3626 25.756 23.7405L23.2879 22.6932C22.3394 22.2837 21.5934 21.6064 21.1882 20.7638L20.3041 18.9526L18.5268 24.1106L23.0853 28.363C23.5826 28.8277 23.9325 29.3868 24.1167 30.001L26.2348 37.2537C26.6308 38.6003 25.6731 39.9705 24.0891 40.3091C22.5051 40.6477 20.9119 39.8288 20.516 38.4743L18.4899 31.5366L11.9791 25.4651C10.6161 24.1973 10.1096 22.4254 10.6253 20.7638L12.1817 15.7633H12.1909ZM6.86801 31.4106L9.17029 26.4967C9.36368 26.733 9.5847 26.9534 9.81493 27.1739L13.5631 30.6704L12.2277 33.521C12.0067 33.9935 11.6752 34.4266 11.2516 34.7889L5.56952 39.6476C4.41838 40.632 2.54892 40.632 1.39778 39.6476C0.246638 38.6633 0.246638 37.0647 1.39778 36.0804L6.86801 31.4106Z" fill="black"/>
</svg>
