<svg width="31" height="41" viewBox="0 0 31 41" fill="none" xmlns="http://www.w3.org/2000/svg">
<path d="M15.2761 3.84876C15.2761 2.84626 15.7418 1.88483 16.5708 1.17596C17.3998 0.467087 18.5241 0.0688477 19.6965 0.0688477C20.8688 0.0688477 21.9932 0.467087 22.8221 1.17596C23.6511 1.88483 24.1168 2.84626 24.1168 3.84876C24.1168 4.85125 23.6511 5.81269 22.8221 6.52156C21.9932 7.23043 20.8688 7.62867 19.6965 7.62867C18.5241 7.62867 17.3998 7.23043 16.5708 6.52156C15.7418 5.81269 15.2761 4.85125 15.2761 3.84876ZM12.191 15.7634C12.0989 15.7949 12.016 15.8264 11.9239 15.8578L11.1872 16.1335C9.67692 16.7083 8.51657 17.8029 7.99165 19.1416L7.75221 19.7559C7.2365 21.0788 5.56964 21.7876 4.02251 21.3466C2.47537 20.9056 1.64655 19.4803 2.16226 18.1573L2.4017 17.5431C3.45154 14.8577 5.77224 12.6685 8.79284 11.5188L9.52957 11.2432C11.4451 10.5187 13.5171 10.1407 15.6168 10.1407C19.7241 10.1407 23.4262 12.2512 25.0009 15.4877L26.4191 18.3935L28.3899 19.2361C29.8449 19.8583 30.4343 21.3702 29.7068 22.6144C28.9793 23.8587 27.2111 24.3626 25.7561 23.7405L23.288 22.6932C22.3395 22.2837 21.5935 21.6065 21.1883 20.7639L20.3043 18.9527L18.5269 24.1107L23.0854 28.3631C23.5827 28.8277 23.9327 29.3868 24.1168 30.001L26.2349 37.2537C26.6309 38.6003 25.6732 39.9705 24.0892 40.3091C22.5052 40.6478 20.9121 39.8288 20.5161 38.4743L18.4901 31.5366L11.9792 25.4651C10.6162 24.1973 10.1097 22.4254 10.6255 20.7639L12.1818 15.7634H12.191ZM6.86813 31.4106L9.17041 26.4967C9.36381 26.733 9.58483 26.9535 9.81505 27.174L13.5632 30.6704L12.2278 33.5211C12.0068 33.9935 11.6753 34.4267 11.2517 34.7889L5.56964 39.6477C4.4185 40.632 2.54904 40.632 1.3979 39.6477C0.24676 38.6633 0.24676 37.0647 1.3979 36.0804L6.86813 31.4106Z" fill="white"/>
</svg>
