<svg width="28" height="24" viewBox="0 0 28 24" fill="none" xmlns="http://www.w3.org/2000/svg">
<g clip-path="url(#clip0_1_6078)">
<path d="M3.57732 1.5C1.66527 1.5 0.110718 2.84531 0.110718 4.5V19.5C0.110718 21.1547 1.66527 22.5 3.57732 22.5H24.3769C26.2889 22.5 27.8435 21.1547 27.8435 19.5V9C27.8435 7.34531 26.2889 6 24.3769 6H4.44396C3.96731 6 3.57732 5.6625 3.57732 5.25C3.57732 4.8375 3.96731 4.5 4.44396 4.5H24.3769C25.3356 4.5 26.1102 3.82969 26.1102 3C26.1102 2.17031 25.3356 1.5 24.3769 1.5H3.57732ZM22.6436 12.75C23.1033 12.75 23.5442 12.908 23.8692 13.1893C24.1943 13.4706 24.3769 13.8522 24.3769 14.25C24.3769 14.6478 24.1943 15.0294 23.8692 15.3107C23.5442 15.592 23.1033 15.75 22.6436 15.75C22.1839 15.75 21.743 15.592 21.418 15.3107C21.0929 15.0294 20.9103 14.6478 20.9103 14.25C20.9103 13.8522 21.0929 13.4706 21.418 13.1893C21.743 12.908 22.1839 12.75 22.6436 12.75Z" fill="black"/>
</g>
<defs>
<clipPath id="clip0_1_6078">
<rect width="27.7328" height="24" fill="white" transform="translate(0.110718)"/>
</clipPath>
</defs>
</svg>
